<svg xmlns="http://www.w3.org/2000/svg" width="400" height="400">
    <path d="M64.546 5.126C33.262 7.7 7.422 30.932 1.092 62.174l-.897 4.428v266.796l.897 4.428c6.436 31.763 32.278 54.622 64.533 57.082 7.276.555 261.474.555 268.75 0 32.241-2.459 57.929-25.166 64.503-57.017l.927-4.493V66.602l-.897-4.428c-6.41-31.639-32.148-54.488-64.297-57.08-6.161-.497-264.01-.466-270.065.032m269.542 17.838c24.249 5.157 41.831 22.516 47.652 47.048l.859 3.621.113 124.805c.11 122.536.098 124.886-.656 129.329-4.434 26.142-25.27 46.294-51.47 49.781-6.33.843-254.842.843-261.172 0-26.119-3.476-47.132-23.721-51.703-49.814-1.113-6.353-1.12-249.054-.007-255.468 4.545-26.199 25.871-46.608 52.218-49.972 1.396-.179 60.459-.302 131.25-.274l128.711.05 4.205.894m-161.772 77.569c-1.128 1.199-21.255 44.258-29.743 63.627-.918 2.095-1.776 3.807-1.906 3.805-.131-.002-2.338-4.616-4.905-10.254-5.661-12.43-18.714-40.334-23.573-50.391l-3.541-7.329-16.14.102c-15.99.101-16.142.11-16.256.911-.067.466 9.316 19.611 22.112 45.118l22.229 44.308-17.153 32.617a88545.028 88545.028 0 0 0-22.894 43.555c-3.158 6.015-5.741 11.377-5.741 11.914v.976l15.259.102 15.26.102.798-.883c1.132-1.254 14.539-29.411 26.666-56.004l5.72-12.543 4.862 10.199c16.28 34.15 28.438 58.658 29.33 59.119 1.321.683 31.618.707 32.3.025.892-.892.361-1.973-22.969-46.767-12.89-24.75-23.437-45.157-23.437-45.348 0-.191 9.941-19.538 22.091-42.993 15.829-30.557 22.058-42.937 21.973-43.671l-.119-1.025-14.674-.103-14.673-.102-.876.933m116.439-.069c-.36.36-.474 5.824-.473 22.759v22.285l-5.728-.136c-49.666-1.176-80.313 41.826-66.772 93.691 10.262 39.306 52.449 54.48 98.188 35.317 5.341-2.238 5.298-2.197 4.969-4.631-.147-1.086-.381-39.681-.521-85.765l-.254-83.789-14.468-.102c-10.927-.077-14.584.014-14.941.371m-4.185 70.684c1.289.228 2.652.579 3.029.78.648.347.68 2.625.586 41.466l-.099 41.098-2.734.719c-4.113 1.08-12.177 1.04-16.782-.084-15.783-3.853-24.261-17.075-25.076-39.111-1.103-29.812 16.63-49.182 41.076-44.868" fill-rule="evenodd"/>
</svg>
