<svg xmlns="http://www.w3.org/2000/svg" width="400" height="419.048">
    <g fill-rule="evenodd">
        <path d="M0 209.4v209.4h400V0H0v209.4M372.759 19.815c8.049 1.897 15.129 8.977 17.026 17.026.761 3.23.945 339.981.187 344.186-1.498 8.317-8.849 15.986-17.213 17.958-3.842.906-341.624.918-345.463.013-8.44-1.99-15.701-9.555-17.259-17.981-.63-3.409-.619-340.518.011-343.497 1.784-8.433 8.782-15.691 17.065-17.699 3.604-.874 341.939-.88 345.646-.006M109.83 92.408c-11.573.561-28.478 2.211-35.83 3.499l-1.8.315V303H119l.102-37.319.102-37.319 5.098.319c58.688 3.675 94.826-20.325 98.198-65.214 2.402-31.989-14.16-56.558-44.7-66.309-13.715-4.379-39.045-6.149-67.97-4.75m35.77 35.605c25.145 2.639 37.445 24.145 26.531 46.386-6.972 14.207-29.582 21.811-51.631 17.363l-1.3-.262v-61.869l1.5-.383c2.947-.751 4.354-.962 8.3-1.244 6.109-.436 12.396-.433 16.6.009m137 19.822c-.66.094-2.64.36-4.4.591-24.195 3.181-42.575 17.483-47.77 37.174-6.483 24.573 7.124 44.738 37.77 55.974 12.357 4.53 14.522 5.386 17.486 6.912 9.156 4.713 11.753 13.616 5.791 19.85-7.549 7.894-32.428 5.882-53.677-4.342-2.2-1.058-4.111-1.805-4.246-1.659-.224.24-8.381 32.736-8.362 33.309.039 1.157 15.095 6.378 22.931 7.952 24.305 4.884 48.582 2.963 65.681-5.198 32.498-15.511 36.193-58.161 6.758-78.023-6.257-4.223-10.916-6.373-25.562-11.796-16.013-5.929-20.408-9.42-20.37-16.179.078-13.861 25.263-16.364 48.192-4.789l2.388 1.205.386-.908c.534-1.257 7.976-30.449 7.995-31.361.034-1.673-15.349-6.226-26.991-7.988-3.813-.577-21.308-1.104-24-.724" fill="#f3f3f3"/>
        <path d="M27.113 19.821c-8.283 2.008-15.281 9.266-17.065 17.699-.63 2.979-.641 340.088-.011 343.497 1.558 8.426 8.819 15.991 17.259 17.981 3.839.905 341.621.893 345.463-.013 8.364-1.972 15.715-9.641 17.213-17.958.758-4.205.574-340.956-.187-344.186-1.897-8.049-8.977-15.129-17.026-17.026-3.707-.874-342.042-.868-345.646.006M157.6 92.967c39.683 5.128 62.263 25.622 64.897 58.9 4.008 50.643-34.542 80.8-98.195 76.814l-5.098-.319-.102 37.319L119 303H72.2V96.222l1.8-.315c19.484-3.413 67.01-5.084 83.6-2.94M129 128.004c-3.946.282-5.353.493-8.3 1.244l-1.5.383V191.5l1.3.262c5.883 1.187 18.609 1.19 25.446.005 20.019-3.467 31.456-17.662 29.624-36.767-1.926-20.077-17.448-29.074-46.57-26.996m177.6 20.555c11.642 1.762 27.025 6.315 26.991 7.988-.019.912-7.461 30.104-7.995 31.361l-.386.908-2.388-1.205c-22.929-11.575-48.114-9.072-48.192 4.789-.038 6.759 4.357 10.25 20.37 16.179 14.646 5.423 19.305 7.573 25.562 11.796 29.435 19.862 25.74 62.512-6.758 78.023-17.099 8.161-41.376 10.082-65.681 5.198-7.836-1.574-22.892-6.795-22.931-7.952-.019-.573 8.138-33.069 8.362-33.309.135-.146 2.046.601 4.246 1.659 21.249 10.224 46.128 12.236 53.677 4.342 5.962-6.234 3.365-15.137-5.791-19.85-2.964-1.526-5.129-2.382-17.486-6.912-30.646-11.236-44.253-31.401-37.77-55.974 5.195-19.691 23.575-33.993 47.77-37.174 1.76-.231 3.74-.497 4.4-.591 2.692-.38 20.187.147 24 .724" fill="#040404"/>
    </g>
</svg>
