<svg xmlns="http://www.w3.org/2000/svg" width="400" height="217.619">
    <g fill-rule="evenodd">
        <path d="M238.303 19.87c-6.044 1.893-6.75 8.514-1.617 15.168 6.563 8.507 7.174 9.525 8.171 13.602.927 3.793 7.622 16.779 10.008 19.411 1.431 1.58 1.542 2.025.888 3.585-.218.519-.524 1.53-.68 2.249-.157.718-.601 2.579-.988 4.135-2.064 8.307-1.983 15.702.252 22.851.345 1.105.406 1.254 1.575 3.883 2.548 5.728 7.036 8.747 10.548 7.096 2.189-1.029 2.864-2.612 3.618-8.477.434-3.381.798-4.713 1.184-4.327.057.057.929 1.764 1.937 3.793 2.542 5.117 6.246 9.535 11.676 13.929a80.52 80.52 0 0 1 3.845 3.384c1.679 1.589 3.037 2.59 3.511 2.59.059 0-.64-.695-1.552-1.545-1.496-1.393-4.128-4.354-4.944-5.561a275.01 275.01 0 0 0-1.757-2.503c-2.212-3.122-4.196-6.415-6.994-11.61-1.102-2.047-3.208-6.332-3.208-6.528 0-.063-.196-.554-.435-1.091a1212.7 1212.7 0 0 1-.85-1.909 15.156 15.156 0 0 1-.67-1.904c-.581-2.2-.959-2.343-2.128-.809a38.75 38.75 0 0 1-1.45 1.795c-1.997 2.25-3.355 7.061-3.945 13.979-.197 2.304-.397 2.606-1.435 2.172-5.428-2.268-8.405-22.049-4.559-30.297 2.592-5.558 2.663-8.463.265-10.911-1.952-1.994-4.33-5.814-5.398-8.675-.262-.7-2.14-5.372-2.45-6.094a203.083 203.083 0 0 1-1.775-4.243c-2.07-5.064-4.39-8.824-8.441-13.684-4.155-4.985-4.259-9.098-.228-9.017 3.128.062 10.903 3.747 14.565 6.903 1.576 1.358 2.096 1.551 4.679 1.742 8.051.592 7.74.534 12.135 2.282 15.253 6.067 32.274 23.284 37.993 38.433.89 2.355 1.947 4.715 4.388 9.793a243.272 243.272 0 0 1 3.628 7.835c4.18 9.383 5.192 10.57 10.485 12.289 2.994.972 6.971 2.406 8.629 3.112 1.327.564 4.264 2.442 8.102 5.179 1.583 1.129 3.549 2.467 4.369 2.972 4.591 2.83 4.571 3.435-.121 3.623-6.806.272-14.068 1.914-16.255 3.675l-.652.525.627 1.505c1.947 4.671 7.607 9.749 14.432 12.95 6.659 3.122 10.227 5.318 13.872 8.539 1.596 1.41 2.142 1.676 1.847.901-.586-1.542-1.236-2.483-3.185-4.608-5.197-5.666-7.756-7.921-11.937-10.517-4.378-2.718-5.027-3.163-6.169-4.231-2.576-2.408-2.787-2.21 4.19-3.941.707-.176 2.764-.51 4.571-.743 1.806-.233 4.019-.63 4.916-.883.898-.253 1.926-.513 2.285-.578 1.636-.295 1.57-.781-.451-3.327-1.748-2.202-2.279-2.748-4.337-4.457a54.094 54.094 0 0 1-1.414-1.198c-.667-.702-5.845-4.558-9.151-6.814-3.166-2.161-8.566-4.859-12.938-6.465-2.115-.776-2.461-1.243-5.607-7.574-4.387-8.828-6.502-13.436-9.011-19.629-1.843-4.55-2.177-5.184-5.028-9.564-7.113-10.923-15.342-19.071-26.636-26.376-5.359-3.466-8.255-4.972-10.798-5.615-.445-.113-1.201-.31-1.68-.437-2.636-.703-4.049-.932-7.425-1.205-4.128-.333-3.984-.282-6.511-2.302-5.537-4.425-14.475-7.455-18.381-6.231m21.599 21.921c-.763.307-.592.671 1.31 2.782.465.516 1.287 1.863 1.825 2.992 1.065 2.232 1.239 2.354 2.072 1.456 2.968-3.2-1.118-8.873-5.207-7.23M44.723 125.596c-4.586.819-7.396 2.143-8.611 4.059-1.358 2.141-1.299.748-1.238 29.25l.055 25.97 6.285.058c4.455.041 6.372-.015 6.583-.19.25-.207.299-4.135.299-23.943 0-13.032.073-23.692.163-23.689.09.004.451.665.803 1.469.352.805.926 2.1 1.275 2.878 1.553 3.46 2.38 5.335 3.745 8.488a369.163 369.163 0 0 0 2.09 4.748c.346.757.629 1.409.629 1.45 0 .041.332.793.738 1.671.405.879 1.2 2.675 1.765 3.991.565 1.317 1.2 2.786 1.41 3.265l1.197 2.72c.447 1.017 1.042 2.34 1.321 2.938.279.599 1.192 2.655 2.027 4.57 3.499 8.017 5.428 9.496 12.434 9.533 7.092.037 9.201-1.622 12.944-10.186.209-.478.663-1.487 1.009-2.24.345-.754.628-1.416.628-1.472 0-.056.331-.81.735-1.677.404-.866.886-1.918 1.072-2.336.186-.419.786-1.721 1.333-2.892.547-1.172.995-2.167.995-2.212 0-.044.333-.799.739-1.678.74-1.598 1.109-2.411 2.852-6.276a569.413 569.413 0 0 1 1.633-3.591c.386-.838 1.337-2.943 2.114-4.679a216.295 216.295 0 0 1 2.533-5.441l1.119-2.285.056 23.265c.04 16.752.123 23.347.298 23.559.254.305 11.923.454 12.686.161.396-.152.526-49.368.138-52.053-.6-4.148-3.047-5.931-9.804-7.144-6.515-1.169-11.768 1.277-14.307 6.663-.586 1.243-1.798 3.954-1.798 4.022 0 .041-.332.793-.738 1.671-1.438 3.115-2.091 4.567-2.091 4.653 0 .048-.233.604-.517 1.236-.482 1.071-1.782 3.982-2.795 6.258a310.98 310.98 0 0 1-.983 2.181 300.78 300.78 0 0 0-1.306 2.938c-.419.958-.96 2.182-1.202 2.721a165.83 165.83 0 0 0-.816 1.85 75.58 75.58 0 0 1-.835 1.849c-.252.539-1.565 3.485-2.916 6.548-1.351 3.062-2.607 5.793-2.789 6.068-.318.479-.497.114-4.328-8.833-4.454-10.399-4.626-10.798-5.392-12.488-.298-.658-.885-2.029-1.304-3.046-.419-1.018-.942-2.25-1.162-2.738a56.14 56.14 0 0 1-.824-1.959 61.12 61.12 0 0 0-.991-2.322c-1.445-3.188-1.655-3.664-1.655-3.754 0-.054-.257-.663-.57-1.354-.668-1.473-.889-1.989-1.819-4.243-2.605-6.317-8.014-9.211-14.912-7.98m158.759.097c-4.372.488-5.78.811-8.883 2.037-3.314 1.311-6.023 4.003-7.161 7.118-.339.93-.387 1.877-.387 7.698v6.638l.704 1.438c2.985 6.1 9.223 8.074 25.293 8.003l9.259-.041 1.204.545c2.722 1.231 3.091 2.368 3 9.251-.077 5.766-.233 6.481-1.767 8.081-1.849 1.929-2.155 1.956-21.915 1.895-9.506-.029-15.446.033-15.615.162-.582.445-.364 6.217.241 6.368.997.251 36.303-.047 37.572-.317 5.896-1.251 9.417-2.907 12.051-5.669 2.498-2.618 2.817-4.116 2.713-12.705l-.074-6.13-.702-1.481c-2.505-5.291-6.592-6.45-23.455-6.656-12.074-.147-11.92-.128-13.47-1.678-2.881-2.881-2.716-13.18.26-16.264 1.846-1.913.299-1.769 19.723-1.837 12.08-.041 17.262-.13 17.465-.298.388-.323.412-5.851.027-6.236-.382-.382-32.587-.313-36.083.078m54.951-.107c-2.782.604-3.401.777-4.753 1.328-3.696 1.507-6.22 4.468-7.018 8.232-.372 1.756-.452 37.467-.088 39.416.866 4.643 4.776 7.939 11.533 9.724l2.067.546 13.753.13 13.753.13.72.671c.395.368 2.005 1.813 3.578 3.21l2.859 2.54h7.085c4.025 0 7.137-.086 7.206-.199.112-.18-1.534-1.753-6.623-6.33-.998-.898-1.995-1.76-2.214-1.917-.671-.477-.461-.82 1.044-1.7 2.299-1.344 3.547-3.104 4.131-5.823.377-1.757.434-37.993.062-39.788-1.038-5.018-5.183-8.481-11.948-9.982-2.019-.448-33.181-.614-35.147-.188m54.353-.09c-.428.175-.378 46.514.053 48.933 1.022 5.746 4.912 8.652 13.603 10.162 1.255.218 5.926.284 20.239.284h18.607l.061-3.03c.038-1.902-.024-3.114-.167-3.257-.154-.154-5.476-.242-16.4-.27-19.437-.05-19.63-.075-21.723-2.806-1.182-1.544-1.128-.422-1.258-26.11l-.121-23.94-6.311-.038c-3.471-.022-6.434.011-6.583.072m-24.819 7.427c1.711.842 3.24 2.418 4.059 4.183l.555 1.197.01 17.41c.009 16.561-.01 17.45-.396 18.226-.496.998-.942 1.032-1.784.136-.352-.375-1.113-1.06-1.693-1.524l-1.053-.843h-7.041c-4.064 0-7.093.085-7.164.201-.068.111 1.297 1.495 3.034 3.076 1.737 1.582 3.158 2.946 3.158 3.031 0 .404-10.584.584-13.082.222-2.895-.419-5.105-1.986-6.284-4.457l-.656-1.373V155.2c0-16.825.01-17.234.447-18.402.792-2.118 2.867-3.955 5.077-4.495.373-.092 5.332-.15 11.021-.13l10.342.036 1.45.714m-157.554 12.395-2.883.07-.054 11.582c-.096 20.344-.158 18.329.617 19.961.81 1.707 2.157 3.137 4.152 4.412 2.413 1.541 4.379 2.262 8.778 3.224.809.177 5.221.304 13.602.394l12.404.131.071.861c.156 1.912-.764 3.56-2.465 4.419-2.064 1.041-1.649 1.018-19.912 1.137l-17.302.112-.06 3.185c-.06 3.159-.056 3.186.435 3.295 1.031.229 36.884-.02 38.611-.268 4.506-.648 8.199-2.013 10.464-3.869 1.001-.82 2.672-3.067 2.672-3.593 0-.162.091-.388.201-.502.75-.77 1.07-43.626.331-44.365-.389-.39-4.082-.466-9.836-.203l-3.101.142v16.276c0 12.781-.058 16.313-.272 16.451-.599.387-20.839.165-22.239-.244-4.092-1.196-3.909-.385-4.039-17.97l-.109-14.689-3.591-.01c-1.975-.005-4.889.022-6.475.061" fill="#070707"/>
        <path d="M0 108.814v108.814h400V0H0v108.814m243.526-88.928c4.214.891 9.794 3.527 13.158 6.215 2.527 2.02 2.383 1.969 6.511 2.302 3.376.273 4.789.502 7.425 1.205.479.127 1.235.324 1.68.437 2.543.643 5.439 2.149 10.798 5.615 11.294 7.305 19.523 15.453 26.636 26.376 2.851 4.38 3.185 5.014 5.028 9.564 2.509 6.193 4.624 10.801 9.011 19.629 3.146 6.331 3.492 6.798 5.607 7.574 4.372 1.606 9.772 4.304 12.938 6.465 3.306 2.256 8.484 6.112 9.151 6.814.06.063.696.602 1.414 1.198 2.058 1.709 2.589 2.255 4.337 4.457 2.021 2.546 2.087 3.032.451 3.327-.359.065-1.387.325-2.285.578-.897.253-3.11.65-4.916.883-1.807.233-3.864.567-4.571.743-6.977 1.731-6.766 1.533-4.19 3.941 1.142 1.068 1.791 1.513 6.169 4.231 4.181 2.596 6.74 4.851 11.937 10.517 1.949 2.125 2.599 3.066 3.185 4.608.295.775-.251.509-1.847-.901-3.645-3.221-7.213-5.417-13.872-8.539-6.825-3.201-12.485-8.279-14.432-12.95l-.627-1.505.652-.525c2.187-1.761 9.449-3.403 16.255-3.675 4.692-.188 4.712-.793.121-3.623-.82-.505-2.786-1.843-4.369-2.972-3.838-2.737-6.775-4.615-8.102-5.179-1.658-.706-5.635-2.14-8.629-3.112-5.293-1.719-6.305-2.906-10.485-12.289-1.402-3.15-2.1-4.656-3.628-7.835-2.441-5.078-3.498-7.438-4.388-9.793-5.719-15.149-22.74-32.366-37.993-38.433-4.395-1.748-4.084-1.69-12.135-2.282-2.583-.191-3.103-.384-4.679-1.742-2.814-2.425-7.406-4.86-12.291-6.519-5.881-1.997-6.994 2.697-2.046 8.633 4.051 4.86 6.371 8.62 8.441 13.684a203.083 203.083 0 0 0 1.775 4.243c.31.722 2.188 5.394 2.45 6.094 1.068 2.861 3.446 6.681 5.398 8.675 2.398 2.448 2.327 5.353-.265 10.911-3.846 8.248-.869 28.029 4.559 30.297 1.038.434 1.238.132 1.435-2.172.59-6.918 1.948-11.729 3.945-13.979a38.75 38.75 0 0 0 1.45-1.795c1.169-1.534 1.547-1.391 2.128.809.141.535.442 1.392.67 1.904l.85 1.909c.239.537.435 1.028.435 1.091 0 .196 2.106 4.481 3.208 6.528 2.798 5.195 4.782 8.488 6.994 11.61a275.01 275.01 0 0 1 1.757 2.503c.816 1.207 3.448 4.168 4.944 5.561.912.85 1.611 1.545 1.552 1.545-.474 0-1.832-1.001-3.511-2.59a80.52 80.52 0 0 0-3.845-3.384c-5.43-4.394-9.134-8.812-11.676-13.929-1.008-2.029-1.88-3.736-1.937-3.793-.386-.386-.75.946-1.184 4.327-.754 5.865-1.429 7.448-3.618 8.477-3.512 1.651-8-1.368-10.548-7.096-1.169-2.629-1.23-2.778-1.575-3.883-2.235-7.149-2.316-14.544-.252-22.851.387-1.556.831-3.417.988-4.135.156-.719.462-1.73.68-2.249.654-1.56.543-2.005-.888-3.585-2.386-2.632-9.081-15.618-10.008-19.411-.997-4.077-1.608-5.095-8.171-13.602-6.723-8.715-2.888-17.21 6.84-15.152m20.152 22.302c2.665 1.95 3.272 4.848 1.431 6.833-.833.898-1.007.776-2.072-1.456-.538-1.129-1.36-2.476-1.825-2.992-1.902-2.111-2.073-2.475-1.31-2.782 1.11-.446 2.878-.26 3.776.397M50.747 125.683c4.181.866 7.035 3.4 8.888 7.893.93 2.254 1.151 2.77 1.819 4.243.313.691.57 1.3.57 1.354 0 .09.21.566 1.655 3.754.313.688.758 1.733.991 2.322.233.589.604 1.47.824 1.959.22.488.743 1.72 1.162 2.738a120.893 120.893 0 0 0 1.304 3.046c.766 1.69.938 2.089 5.392 12.488 3.831 8.947 4.01 9.312 4.328 8.833.182-.275 1.438-3.006 2.789-6.068a687.573 687.573 0 0 1 2.916-6.548 75.58 75.58 0 0 0 .835-1.849c.207-.479.574-1.312.816-1.85.242-.539.783-1.763 1.202-2.721a300.78 300.78 0 0 1 1.306-2.938c.3-.658.742-1.639.983-2.181 1.013-2.276 2.313-5.187 2.795-6.258.284-.632.517-1.188.517-1.236 0-.086.653-1.538 2.091-4.653.406-.878.738-1.63.738-1.671 0-.068 1.212-2.779 1.798-4.022 2.539-5.386 7.792-7.832 14.307-6.663 6.757 1.213 9.204 2.996 9.804 7.144.388 2.685.258 51.901-.138 52.053-.763.293-12.432.144-12.686-.161-.175-.212-.258-6.807-.298-23.559l-.056-23.265-1.119 2.285a216.295 216.295 0 0 0-2.533 5.441 641.589 641.589 0 0 1-2.114 4.679c-.386.838-1.121 2.454-1.633 3.591-1.743 3.865-2.112 4.678-2.852 6.276-.406.879-.739 1.634-.739 1.678 0 .045-.448 1.04-.995 2.212a248.79 248.79 0 0 0-1.333 2.892c-.186.418-.668 1.47-1.072 2.336-.404.867-.735 1.621-.735 1.677 0 .056-.283.718-.628 1.472-.346.753-.8 1.762-1.009 2.24-3.743 8.564-5.852 10.223-12.944 10.186-7.006-.037-8.935-1.516-12.434-9.533a313.863 313.863 0 0 0-2.027-4.57c-.279-.598-.874-1.921-1.321-2.938l-1.197-2.72c-.21-.479-.845-1.948-1.41-3.265a207.353 207.353 0 0 0-1.765-3.991c-.406-.878-.738-1.63-.738-1.671 0-.041-.283-.693-.629-1.45a369.163 369.163 0 0 1-2.09-4.748 596.276 596.276 0 0 0-3.745-8.488c-.349-.778-.923-2.073-1.275-2.878-.352-.804-.713-1.465-.803-1.469-.09-.003-.163 10.657-.163 23.689 0 19.808-.049 23.736-.299 23.943-.211.175-2.128.231-6.583.19l-6.285-.058-.055-25.97c-.061-28.502-.12-27.109 1.238-29.25 1.929-3.042 9.37-5.062 14.635-3.972m188.818-.068c.385.385.361 5.913-.027 6.236-.203.168-5.385.257-17.465.298-19.424.068-17.877-.076-19.723 1.837-2.976 3.084-3.141 13.383-.26 16.264 1.55 1.55 1.396 1.531 13.47 1.678 16.863.206 20.95 1.365 23.455 6.656l.702 1.481.074 6.13c.104 8.589-.215 10.087-2.713 12.705-2.634 2.762-6.155 4.418-12.051 5.669-1.269.27-36.575.568-37.572.317-.605-.151-.823-5.923-.241-6.368.169-.129 6.109-.191 15.615-.162 19.76.061 20.066.034 21.915-1.895 1.534-1.6 1.69-2.315 1.767-8.081.091-6.883-.278-8.02-3-9.251l-1.204-.545-9.259.041c-16.07.071-22.308-1.903-25.293-8.003l-.704-1.438v-6.638c0-5.821.048-6.768.387-7.698 1.138-3.115 3.847-5.807 7.161-7.118 3.103-1.226 4.511-1.549 8.883-2.037 3.496-.391 35.701-.46 36.083-.078m54.015.159c6.765 1.501 10.91 4.964 11.948 9.982.372 1.795.315 38.031-.062 39.788-.584 2.719-1.832 4.479-4.131 5.823-1.505.88-1.715 1.223-1.044 1.7.219.157 1.216 1.019 2.214 1.917 5.089 4.577 6.735 6.15 6.623 6.33-.069.113-3.181.199-7.206.199h-7.085l-2.859-2.54a349.523 349.523 0 0 1-3.578-3.21l-.72-.671-13.753-.13-13.753-.13-2.067-.546c-6.757-1.785-10.667-5.081-11.533-9.724-.364-1.949-.284-37.66.088-39.416.798-3.764 3.322-6.725 7.018-8.232 1.352-.551 1.971-.724 4.753-1.328 1.966-.426 33.128-.26 35.147.188m32.221 23.628c.13 25.688.076 24.566 1.258 26.11 2.093 2.731 2.286 2.756 21.723 2.806 10.924.028 16.246.116 16.4.27.143.143.205 1.355.167 3.257l-.061 3.03h-18.607c-14.313 0-18.984-.066-20.239-.284-8.691-1.51-12.581-4.416-13.603-10.162-.431-2.419-.481-48.758-.053-48.933.149-.061 3.112-.094 6.583-.072l6.311.038.121 23.94m-60.647-17.099c-2.21.54-4.285 2.377-5.077 4.495-.437 1.168-.447 1.577-.447 18.402v17.208l.656 1.373c1.179 2.471 3.389 4.038 6.284 4.457 2.498.362 13.082.182 13.082-.222 0-.085-1.421-1.449-3.158-3.031-1.737-1.581-3.102-2.965-3.034-3.076.071-.116 3.1-.201 7.164-.201h7.041l1.053.843c.58.464 1.341 1.149 1.693 1.524.842.896 1.288.862 1.784-.136.386-.776.405-1.665.396-18.226l-.01-17.41-.555-1.197c-.819-1.765-2.348-3.341-4.059-4.183l-1.45-.714-10.342-.036c-5.689-.02-10.648.038-11.021.13m-124.566 27.653c.13 17.585-.053 16.774 4.039 17.97 1.4.409 21.64.631 22.239.244.214-.138.272-3.67.272-16.451v-16.276l3.101-.142c5.754-.263 9.447-.187 9.836.203.739.739.419 43.595-.331 44.365a.835.835 0 0 0-.201.502c0 .526-1.671 2.773-2.672 3.593-2.265 1.856-5.958 3.221-10.464 3.869-1.727.248-37.58.497-38.611.268-.491-.109-.495-.136-.435-3.295l.06-3.185 17.302-.112c18.263-.119 17.848-.096 19.912-1.137 1.701-.859 2.621-2.507 2.465-4.419l-.071-.861-12.404-.131c-8.381-.09-12.793-.217-13.602-.394-4.399-.962-6.365-1.683-8.778-3.224-1.995-1.275-3.342-2.705-4.152-4.412-.775-1.632-.713.383-.617-19.961l.054-11.582 2.883-.07c1.586-.039 4.5-.066 6.475-.061l3.591.01.109 14.689" fill="#f3f3f3"/>
    </g>
</svg>
