<svg xmlns="http://www.w3.org/2000/svg" width="400" height="398.222">
    <g fill-rule="evenodd">
        <path d="M300.255 1.792c-.14.365-.255 76.838-.255 169.94 0 166.487-.013 169.283-.765 169.685-.945.506-8.25-.051-11.984-.913-1.424-.329-4.114-.717-5.976-.863-1.863-.145-4.283-.533-5.379-.86-1.095-.328-3.977-.754-6.403-.946-2.426-.193-4.882-.53-5.456-.748-.575-.219-3.582-.677-6.682-1.019-3.101-.342-5.963-.796-6.361-1.01-.399-.213-2.79-.568-5.313-.79-2.524-.221-5.095-.594-5.713-.829-.618-.236-3.095-.591-5.506-.79-2.41-.199-5.44-.639-6.734-.978-1.293-.339-4.251-.78-6.573-.979-2.323-.199-4.85-.564-5.617-.809-.767-.246-3.216-.615-5.442-.82-2.225-.205-5.542-.731-7.37-1.169-1.828-.438-4.399-.8-5.714-.804-1.315-.004-3.377-.272-4.582-.595-1.205-.324-4.163-.782-6.573-1.018-2.411-.237-5.26-.686-6.332-.997-1.072-.312-3.403-.671-5.18-.799-1.776-.128-4.753-.561-6.616-.963-1.862-.401-4.954-.846-6.869-.988-1.916-.141-4.336-.499-5.379-.795-1.042-.295-3.419-.65-5.282-.789-1.862-.138-4.462-.515-5.777-.837-1.314-.322-4.371-.759-6.792-.972-2.42-.213-5.11-.636-5.976-.94-.866-.304-3.398-.681-5.627-.837-2.229-.157-4.919-.55-5.976-.873-1.058-.323-3.919-.755-6.359-.958-2.439-.204-4.931-.559-5.537-.789-.606-.231-3.361-.682-6.123-1.003-2.761-.32-6.365-.845-8.008-1.166-1.644-.321-3.802-.591-4.797-.6-.995-.009-2.877-.3-4.183-.648-1.306-.349-4.168-.786-6.359-.972-2.191-.186-5.508-.707-7.37-1.157-1.863-.45-4.283-.823-5.379-.828-1.095-.005-3.677-.365-5.738-.799-2.06-.435-4.51-.791-5.445-.791-.936 0-3.953-.448-6.706-.996-2.753-.548-5.861-.999-6.905-1.002-1.044-.003-3.311-.362-5.037-.797-1.726-.435-3.967-.792-4.98-.793-1.954-.002-4.47-.388-9.013-1.38-1.534-.335-3.887-.61-5.229-.61s-3.202-.269-4.134-.597c-1.86-.657-5.403-.805-5.751-.241-.31.501.756.838 2.65.838 1.211 0 1.846.25 2.538.996.624.674 1.349.997 2.237.998.723.001 1.901.359 2.619.797.717.437 1.613.801 1.992.808.378.007 1.673.371 2.878.808 1.206.437 2.998 1.043 3.984 1.345 2.233.684 5.225 1.722 7.57 2.625.986.38 2.51.876 3.387 1.102 2.02.521 5.116 1.595 7.171 2.489.876.381 2.292.815 3.146.965.854.15 1.929.509 2.39.797.461.288 1.535.646 2.386.796.852.149 2.194.618 2.983 1.04.788.423 1.847.769 2.352.769.505 0 1.621.359 2.48.797.859.438 1.883.798 2.275.801.392.002 1.672.45 2.844.996 1.172.545 2.612.992 3.198.992.587 0 1.437.259 1.89.576.452.316 1.702.791 2.778 1.054 1.075.263 2.403.695 2.951.959.548.265 1.864.694 2.926.953 1.061.26 2.316.714 2.788 1.01.473.296 1.557.66 2.408.81.851.149 2.193.618 2.982 1.04.789.423 1.847.769 2.352.769.505 0 1.621.359 2.48.797.86.438 1.973.802 2.475.809.501.007 1.808.454 2.904.992 1.096.539 2.44.983 2.988.987.548.003 1.534.362 2.191.798.658.435 1.735.792 2.394.794.659.001 2.04.451 3.069.998 1.029.548 2.328.996 2.887.996.559 0 1.685.359 2.502.797.818.438 1.851.797 2.296.797.444 0 1.433.332 2.197.738.763.407 2.097.87 2.963 1.03.867.16 2.211.61 2.988 1 .778.391 2.131.837 3.007.992.877.156 1.952.512 2.39.791.439.279 1.506.64 2.372.801.867.161 2.249.636 3.072 1.056.823.42 1.87.763 2.325.763.456 0 1.494.335 2.307.743.813.409 2.116.859 2.895 1 .779.141 2.117.613 2.973 1.05.855.436 2.016.793 2.578.793.562 0 1.392.259 1.845.576.452.317 1.702.791 2.777 1.054 1.076.263 2.404.7 2.952.97s1.624.623 2.391.784c.766.16 2.146.63 3.065 1.044.92.413 2.002.751 2.406.751.404 0 1.435.357 2.29.793.856.437 2.194.909 2.973 1.05.779.141 1.955.531 2.612.867.658.337 1.823.749 2.59.917 1.578.346 5.689 1.716 8.366 2.789.986.395 2.358.826 3.049.959.691.133 1.939.589 2.774 1.015.834.425 1.818.774 2.186.774.368 0 1.451.354 2.406.788.955.433 2.095.798 2.534.81.438.012 1.513.369 2.39.792.876.423 1.959.776 2.406.783.446.008 1.512.371 2.368.807.856.436 2.193.909 2.973 1.05.779.141 2.044.567 2.811.946.767.379 2.091.815 2.942.97.852.155 2.194.627 2.982 1.05.789.423 1.848.769 2.353.769.505 0 1.583.334 2.396.742.813.409 2.195.873 3.072 1.032.876.159 1.796.456 2.044.661.248.205 1.463.636 2.7.958 1.237.322 2.647.836 3.135 1.141.487.306 1.603.678 2.479.829.877.15 1.954.505 2.395.788.44.283 1.757.719 2.926.97 1.169.251 2.507.723 2.973 1.05.466.326 1.308.593 1.87.593s1.723.357 2.578.794c.856.436 2.194.904 2.973 1.04.779.136 2.01.585 2.734.999.725.414 1.801.759 2.391.766.59.006 1.969.453 3.065.992 1.095.539 2.357.982 2.804.984.447.002 1.515.362 2.375.8.86.438 1.917.797 2.349.797.432 0 1.515.338 2.406.752.891.413 2.499.961 3.575 1.217 1.076.255 2.326.724 2.778 1.04.452.317 1.278.576 1.835.576.557 0 1.638.333 2.402.739.763.406 2.097.869 2.963 1.029.866.16 2.249.635 3.072 1.055.823.419 1.91.763 2.415.763.505 0 1.543.332 2.306.739.764.406 2.088.867 2.941 1.025.854.157 1.987.571 2.518.919.531.347 1.894.779 3.028.958 1.135.18 2.263.599 2.507.932.573.785 3.343.831 3.343.056 0-.324.778-.746 1.893-1.026 1.04-.261 2.161-.711 2.49-.999.328-.288 1.225-.655 1.992-.817.767-.161 2.022-.612 2.789-1.002.766-.389 2.559-1.196 3.984-1.793a193.34 193.34 0 0 0 4.227-1.831c.9-.411 1.832-.747 2.07-.747.238 0 1.276-.448 2.307-.996 1.03-.547 2.16-.997 2.511-.998.351-.002 1.175-.359 1.833-.794.657-.436 1.574-.793 2.038-.795.463-.001 1.298-.361 1.855-.799.558-.438 1.307-.797 1.666-.797s1.495-.448 2.524-.996 2.202-.996 2.608-.996c.405 0 1.193-.358 1.75-.797.557-.438 1.304-.797 1.66-.797.355 0 1.488-.448 2.517-.996 1.029-.547 2.144-.996 2.477-.996.334 0 1.194-.357 1.911-.795.718-.437 1.684-.796 2.147-.797.464 0 1.299-.36 1.856-.798.557-.438 1.272-.797 1.588-.797.316 0 1.379-.427 2.362-.95.982-.522 2.398-1.08 3.147-1.239.748-.16 1.629-.516 1.958-.793.328-.276 1.314-.73 2.191-1.008.876-.278 1.947-.749 2.379-1.047.433-.297 1.06-.546 1.395-.553.334-.007 1.505-.453 2.6-.992 1.096-.539 2.233-.982 2.527-.984.294-.002.991-.362 1.548-.8.557-.439 1.393-.797 1.859-.797.465 0 1.688-.448 2.717-.996 1.029-.548 2.215-.996 2.637-.996.421 0 .965-.24 1.209-.533.243-.294 1.205-.762 2.137-1.041.932-.279 2.049-.757 2.483-1.061.435-.304 1.082-.552 1.439-.552.356 0 1.491-.449 2.522-.996 1.03-.548 2.182-.996 2.56-.996.378 0 1.13-.314 1.672-.698.541-.383 1.523-.876 2.18-1.095l1.196-.399V41.652l-2.391-1.285c-1.315-.708-2.728-1.295-3.14-1.305-.412-.01-1.309-.356-1.992-.77-.683-.413-1.691-.875-2.238-1.026-1.036-.286-3.522-1.376-6.055-2.657-.811-.409-1.742-.744-2.071-.744-.328 0-1.44-.449-2.47-.996-1.031-.548-2.181-.996-2.557-.996-.376 0-1.112-.332-1.634-.738-.523-.406-1.399-.835-1.946-.953-1.419-.306-7.286-2.745-10.438-4.338-.81-.409-1.689-.744-1.954-.744-.264 0-1.399-.435-2.523-.967s-2.523-1.087-3.11-1.234c-.586-.148-1.275-.519-1.53-.827-.255-.307-.733-.558-1.062-.558-.577 0-3.764-1.256-7.073-2.787-.876-.406-2.042-.862-2.589-1.013-.548-.151-1.555-.613-2.239-1.026-.683-.414-1.584-.752-2.003-.752-.418 0-1.114-.243-1.546-.541-.432-.297-1.503-.768-2.38-1.046-.876-.278-1.865-.741-2.197-1.03-.332-.288-1.344-.69-2.249-.894-.905-.203-2.063-.662-2.573-1.019-.51-.357-1.183-.649-1.496-.649-.514 0-1.702-.508-6.624-2.835-.877-.414-1.824-.752-2.105-.752-.281.001-1.396-.447-2.477-.995s-2.216-.996-2.522-.996c-.307 0-1.013-.358-1.571-.797-.557-.438-1.309-.796-1.672-.796-.362 0-1.589-.436-2.726-.968-2.92-1.367-4.872-1.678-5.198-.826M181.174 72.18c-15.606 15.486-62.585 61.934-71.214 70.409-7.088 6.961-6.118 6.844-12.743 1.535-1.299-1.041-2.459-1.893-2.578-1.893-.119 0-.53-.277-.914-.615-.383-.339-1.504-1.236-2.49-1.995-2.463-1.895-2.329-1.795-4.781-3.565-1.205-.87-2.37-1.721-2.589-1.891a445.912 445.912 0 0 0-7.371-5.604c-2.082-1.557-3.874-2.932-3.984-3.056-.11-.123-.704-.546-1.321-.939a22.648 22.648 0 0 1-1.926-1.385 48.267 48.267 0 0 0-3.732-2.862c-.783-.548-2.625-1.94-4.094-3.093-3.234-2.537-2.966-2.334-5.66-4.271-1.205-.866-2.281-1.698-2.391-1.849-.596-.819-4.494-3.137-5.269-3.133-1.293.007-4.668.951-6.165 1.726-.701.363-1.687.661-2.191.662-.504.001-1.429.27-2.055.597-.627.326-2.061.851-3.188 1.166-1.126.315-2.765.845-3.642 1.179-.876.333-1.961.614-2.41.624-3.266.07-2.239 1.436 10.251 13.642 5.987 5.851 18.092 17.782 26.901 26.515l16.015 15.878-.677.979c-.372.539-5.227 5.46-10.788 10.936a12688.794 12688.794 0 0 0-23.904 23.626c-7.587 7.518-15.102 14.941-16.702 16.494-2.876 2.793-3.259 3.682-1.782 4.133.388.119 1.244.472 1.901.786.658.314 1.823.687 2.59.829.767.142 2.06.591 2.872.998.813.406 1.896.739 2.406.739.51 0 1.628.357 2.484.793.856.437 2.193.907 2.973 1.045.779.138 1.975.588 2.659.999 1.669 1.006 2.78.943 4.277-.244.689-.546 1.612-1.26 2.05-1.587.438-.327 1.494-1.136 2.346-1.797.851-.66 1.658-1.202 1.792-1.203.135-.001.924-.626 1.755-1.389.831-.763 1.838-1.563 2.238-1.777.4-.214 2.18-1.516 3.956-2.893 1.776-1.378 3.866-2.953 4.645-3.501a63.977 63.977 0 0 0 2.172-1.593c.416-.329 1.329-1.046 2.029-1.594s1.77-1.399 2.379-1.892c.608-.493 1.21-.897 1.337-.897s1.637-1.12 3.355-2.49c1.718-1.369 3.892-3.028 4.832-3.685.939-.657 2.08-1.599 2.536-2.092.455-.493.993-.896 1.196-.896.203 0 .933-.447 1.622-.993 1.806-1.431 2.5-1.959 5.834-4.442 1.643-1.223 3.705-2.802 4.582-3.508 2.958-2.384 2.029-3.009 15.87 10.681 16.313 16.135 51.607 50.957 58.233 57.455 2.849 2.793 8.438 8.3 12.421 12.237l7.242 7.159 2.167-.179c1.411-.117 2.55-.482 3.27-1.048.607-.477 1.393-.869 1.747-.87.354-.001 1.525-.449 2.603-.996 1.078-.547 2.266-.994 2.641-.994.374 0 .903-.269 1.176-.598.273-.328.785-.597 1.139-.597.353 0 1.542-.435 2.64-.965 3.982-1.923 6.541-3.019 7.053-3.022.288-.002 1.061-.359 1.718-.794.657-.436 1.509-.793 1.892-.794.384-.002 1.638-.479 2.789-1.06 4.508-2.278 5.056-2.529 5.557-2.541.285-.007 1.415-.454 2.511-.993 1.096-.539 2.284-.981 2.64-.983.357-.002.857-.255 1.112-.562.255-.307.944-.679 1.53-.826.994-.25 3.175-1.178 7.112-3.026.901-.423 1.91-.769 2.242-.769 1.512 0 1.492 1.195 1.503-89.247l.01-88.177-.877-.934c-.483-.514-1.59-1.126-2.461-1.36-.871-.235-1.958-.662-2.416-.95a8.185 8.185 0 0 0-1.829-.795c-1.088-.296-3.542-1.385-6.434-2.855-1.018-.517-2.215-.941-2.66-.941-.445 0-1.07-.26-1.388-.578-.317-.318-1.092-.699-1.721-.848-.629-.149-1.771-.594-2.538-.989a20.78 20.78 0 0 0-2.857-1.164c-.804-.245-1.678-.706-1.941-1.023-.264-.318-.922-.577-1.463-.577s-1.44-.359-1.997-.797c-.557-.438-1.321-.797-1.697-.797-.376 0-1.527-.448-2.557-.996s-2.142-.996-2.47-.996c-.329 0-1.261-.349-2.071-.775-2.82-1.483-4.887-2.412-5.364-2.412-.264 0-1.469-.464-2.677-1.032-4.189-1.967-5.389-2.478-6.282-2.678-.75-.167-3.137 2.023-14.542 13.34m14.14 97.641c.069 30.445-.032 46.479-.294 46.795-.496.597-2.427-.261-4.074-1.809-.608-.571-2.002-1.65-3.097-2.398-1.096-.749-3.277-2.412-4.848-3.698-1.57-1.285-2.978-2.336-3.129-2.336-.251 0-.771-.391-3.776-2.837-2.878-2.341-3.408-2.74-3.644-2.741-.142 0-2.114-1.44-4.383-3.201-2.268-1.76-5.339-4.135-6.824-5.278a875.463 875.463 0 0 1-3.842-2.975c-.629-.493-1.333-.897-1.564-.897-.232 0-.564-.229-.74-.508-.175-.28-1.663-1.486-3.306-2.681-1.644-1.194-3.987-2.993-5.208-3.996-1.22-1.004-2.924-2.253-3.785-2.777-.861-.524-1.655-1.072-1.764-1.22-.341-.457-5.33-4.197-6.271-4.699-2.192-1.171-2.257-2.613-.191-4.202 2.443-1.878 3.935-3.058 4.959-3.921.456-.383.954-.697 1.107-.697.154 0 .745-.403 1.313-.896s2.122-1.704 3.453-2.69c2.504-1.855 7.075-5.32 7.792-5.905.224-.184.942-.676 1.593-1.094.652-.417 1.39-.941 1.64-1.163.25-.222 1.645-1.3 3.099-2.395a809.573 809.573 0 0 0 6.001-4.582c1.846-1.424 3.996-3.038 4.778-3.586a47.88 47.88 0 0 0 2.394-1.793c1.06-.87 2.009-1.596 4.283-3.28 6.539-4.842 11.083-8.294 11.859-9.008.328-.302 1.045-.78 1.593-1.063.548-.282 1.105-.679 1.238-.882.352-.538 2.464-1.839 3.04-1.873.389-.023.515 9.783.598 46.286" fill="#047bcc"/>
        <path d="M0 199.203v199.203h149.004c101.47 0 149.004-.13 149.004-.408 0-.524-1.734-1.185-3.114-1.187-.588-.001-1.639-.349-2.335-.773-.696-.425-1.951-.898-2.789-1.053-.838-.155-2.148-.613-2.912-1.019-.763-.407-1.801-.739-2.306-.739-.505 0-1.592-.344-2.415-.763-.823-.42-2.206-.895-3.072-1.055-.866-.16-2.2-.623-2.963-1.029-.764-.406-1.845-.739-2.402-.739-.557 0-1.383-.259-1.835-.576-.452-.316-1.702-.785-2.778-1.04-1.076-.256-2.684-.804-3.575-1.217-.891-.414-1.974-.752-2.406-.752-.432 0-1.489-.359-2.349-.797-.86-.438-1.928-.798-2.375-.8-.447-.002-1.709-.445-2.804-.984-1.096-.539-2.475-.986-3.065-.992-.59-.007-1.666-.352-2.391-.766-.724-.414-1.955-.863-2.734-.999-.779-.136-2.117-.604-2.973-1.04-.855-.437-2.016-.794-2.578-.794-.562 0-1.404-.267-1.87-.593-.466-.327-1.804-.799-2.973-1.05-1.169-.251-2.486-.687-2.926-.97-.441-.283-1.518-.638-2.395-.788-.876-.151-1.992-.523-2.479-.829-.488-.305-1.898-.819-3.135-1.141-1.237-.322-2.452-.753-2.7-.958-.248-.205-1.168-.502-2.044-.661-.877-.159-2.259-.623-3.072-1.032-.813-.408-1.891-.742-2.396-.742-.505 0-1.564-.346-2.353-.769-.788-.423-2.13-.895-2.982-1.05-.851-.155-2.175-.591-2.942-.97-.767-.379-2.032-.805-2.811-.946-.78-.141-2.117-.614-2.973-1.05-.856-.436-1.922-.799-2.368-.807-.447-.007-1.53-.36-2.406-.783-.877-.423-1.952-.78-2.39-.792-.439-.012-1.579-.377-2.534-.81-.955-.434-2.038-.788-2.406-.788-.368 0-1.352-.349-2.186-.774-.835-.426-2.083-.882-2.774-1.015-.691-.133-2.063-.564-3.049-.959-2.677-1.073-6.788-2.443-8.366-2.789-.767-.168-1.932-.58-2.59-.917-.657-.336-1.833-.726-2.612-.867-.779-.141-2.117-.613-2.973-1.05-.855-.436-1.886-.793-2.29-.793-.404 0-1.486-.338-2.406-.751-.919-.414-2.299-.884-3.065-1.044-.767-.161-1.843-.514-2.391-.784s-1.876-.707-2.952-.97c-1.075-.263-2.325-.737-2.777-1.054-.453-.317-1.283-.576-1.845-.576s-1.723-.357-2.578-.793c-.856-.437-2.194-.909-2.973-1.05-.779-.141-2.082-.591-2.895-1-.813-.408-1.851-.743-2.307-.743-.455 0-1.502-.343-2.325-.763-.823-.42-2.205-.895-3.072-1.056-.866-.161-1.933-.522-2.372-.801-.438-.279-1.513-.635-2.39-.791-.876-.155-2.229-.601-3.007-.992-.777-.39-2.121-.84-2.988-1-.866-.16-2.2-.623-2.963-1.03-.764-.406-1.753-.738-2.197-.738-.445 0-1.478-.359-2.296-.797-.817-.438-1.943-.797-2.502-.797-.559 0-1.858-.448-2.887-.996-1.029-.547-2.41-.997-3.069-.998-.659-.002-1.736-.359-2.394-.794-.657-.436-1.643-.795-2.191-.798-.548-.004-1.892-.448-2.988-.987-1.096-.538-2.403-.985-2.904-.992-.502-.007-1.615-.371-2.475-.809-.859-.438-1.975-.797-2.48-.797-.505 0-1.563-.346-2.352-.769-.789-.422-2.131-.891-2.982-1.04-.851-.15-1.935-.514-2.408-.81-.472-.296-1.727-.75-2.788-1.01-1.062-.259-2.378-.688-2.926-.953-.548-.264-1.876-.696-2.951-.959-1.076-.263-2.326-.738-2.778-1.054-.453-.317-1.303-.576-1.89-.576-.586 0-2.026-.447-3.198-.992-1.172-.546-2.452-.994-2.844-.996-.392-.003-1.416-.363-2.275-.801-.859-.438-1.975-.797-2.48-.797-.505 0-1.564-.346-2.352-.769-.789-.422-2.131-.891-2.983-1.04-.851-.15-1.925-.508-2.386-.796-.461-.288-1.536-.647-2.39-.797-.854-.15-2.27-.584-3.146-.965-2.055-.894-5.151-1.968-7.171-2.489-.877-.226-2.401-.722-3.387-1.102a125.709 125.709 0 0 0-7.57-2.625c-.986-.302-2.778-.908-3.984-1.345-1.205-.437-2.5-.801-2.878-.808-.379-.007-1.275-.371-1.992-.808-.718-.438-1.896-.796-2.619-.797-.888-.001-1.613-.324-2.237-.998-.692-.746-1.327-.996-2.538-.996-1.894 0-2.96-.337-2.65-.838.348-.564 3.891-.416 5.751.241.932.328 2.792.597 4.134.597 1.342 0 3.695.275 5.229.61 4.543.992 7.059 1.378 9.013 1.38 1.013.001 3.254.358 4.98.793 1.726.435 3.993.794 5.037.797 1.044.003 4.152.454 6.905 1.002s5.77.996 6.706.996c.935 0 3.385.356 5.445.791 2.061.434 4.643.794 5.738.799 1.096.005 3.516.378 5.379.828 1.862.45 5.179.971 7.37 1.157 2.191.186 5.053.623 6.359.972 1.306.348 3.188.639 4.183.648.995.009 3.153.279 4.797.6 1.643.321 5.247.846 8.008 1.166 2.762.321 5.517.772 6.123 1.003.606.23 3.098.585 5.537.789 2.44.203 5.301.635 6.359.958 1.057.323 3.747.716 5.976.873 2.229.156 4.761.533 5.627.837.866.304 3.556.727 5.976.94 2.421.213 5.478.65 6.792.972 1.315.322 3.915.699 5.777.837 1.863.139 4.24.494 5.282.789 1.043.296 3.463.654 5.379.795 1.915.142 5.007.587 6.869.988 1.863.402 4.84.835 6.616.963 1.777.128 4.108.487 5.18.799 1.072.311 3.921.76 6.332.997 2.41.236 5.368.694 6.573 1.018 1.205.323 3.267.591 4.582.595 1.315.004 3.886.366 5.714.804 1.828.438 5.145.964 7.37 1.169 2.226.205 4.675.574 5.442.82.767.245 3.294.61 5.617.809 2.322.199 5.28.64 6.573.979 1.294.339 4.324.779 6.734.978 2.411.199 4.888.554 5.506.79.618.235 3.189.608 5.713.829 2.523.222 4.914.577 5.313.79.398.214 3.26.668 6.361 1.01 3.1.342 6.107.8 6.682 1.019.574.218 3.03.555 5.456.748 2.426.192 5.308.618 6.403.946 1.096.327 3.516.715 5.379.86 1.862.146 4.552.534 5.976.863 3.734.862 11.039 1.419 11.984.913.752-.402.765-3.203.771-169.817.004-97.265.156-169.645.358-169.964.427-.675 3.179-.095 5.53 1.164.805.432 1.798.786 2.205.786.407 0 1.195.358 1.752.796.558.439 1.264.797 1.571.797.306 0 1.441.448 2.522.996 1.081.548 2.196.996 2.477.995.281 0 1.228.338 2.105.752 4.922 2.327 6.11 2.835 6.624 2.835.313 0 .986.292 1.496.649.51.357 1.668.816 2.573 1.019.905.204 1.917.606 2.249.894.332.289 1.321.752 2.197 1.03.877.278 1.948.749 2.38 1.046.432.298 1.128.541 1.546.541.419 0 1.32.338 2.003.752.684.413 1.691.875 2.239 1.026.547.151 1.713.607 2.589 1.013 3.309 1.531 6.496 2.787 7.073 2.787.329 0 .807.251 1.062.558.255.308.944.679 1.53.827.587.147 1.986.702 3.11 1.234 1.124.532 2.259.967 2.523.967.265 0 1.144.335 1.954.744 3.152 1.593 9.019 4.032 10.438 4.338.547.118 1.423.547 1.946.953.522.406 1.258.738 1.634.738.376 0 1.526.448 2.557.996 1.03.547 2.142.996 2.47.996.329 0 1.26.335 2.071.744 2.533 1.281 5.019 2.371 6.055 2.657.547.151 1.555.613 2.238 1.026.683.414 1.58.76 1.992.77.412.01 1.825.597 3.14 1.305l2.391 1.285v315.519l-1.196.399c-.657.219-1.639.712-2.18 1.095-.542.384-1.294.698-1.672.698-.378 0-1.53.448-2.56.996-1.031.547-2.166.996-2.522.996-.357 0-1.004.248-1.439.552-.434.304-1.551.782-2.483 1.061-.932.279-1.894.747-2.137 1.041-.244.293-.788.533-1.209.533-.422 0-1.608.448-2.637.996s-2.252.996-2.717.996c-.466 0-1.302.358-1.859.797-.557.438-1.254.798-1.548.8-.294.002-1.431.445-2.527.984-1.095.539-2.266.985-2.6.992-.335.007-.962.256-1.395.553-.432.298-1.503.769-2.379 1.047-.877.278-1.863.732-2.191 1.008-.329.277-1.21.633-1.958.793-.749.159-2.165.717-3.147 1.239-.983.523-2.046.95-2.362.95-.316 0-1.031.359-1.588.797-.557.438-1.392.798-1.856.798-.463.001-1.429.36-2.147.797-.717.438-1.577.795-1.911.795-.333 0-1.448.449-2.477.996-1.029.548-2.162.996-2.517.996-.356 0-1.103.359-1.66.797-.557.439-1.345.797-1.75.797-.406 0-1.579.448-2.608.996-1.029.548-2.165.996-2.524.996s-1.108.359-1.666.797c-.557.438-1.392.798-1.855.799-.464.002-1.381.359-2.038.795-.658.435-1.482.792-1.833.794-.351.001-1.481.451-2.511.998-1.031.548-2.069.996-2.307.996s-1.17.336-2.07.747a193.34 193.34 0 0 1-4.227 1.831c-1.425.597-3.218 1.404-3.984 1.793-.767.39-2.022.841-2.789 1.002-.767.162-1.664.529-1.992.817-.329.288-1.45.738-2.49.999-1.115.28-1.893.702-1.893 1.026 0 .465 7.642.55 49.403.55H400V0H0v199.203M198.207 59.764a389.2 389.2 0 0 1 3.791 1.754c1.208.568 2.413 1.032 2.677 1.032.477 0 2.544.929 5.364 2.412.81.426 1.742.775 2.071.775.328 0 1.44.448 2.47.996 1.03.548 2.181.996 2.557.996.376 0 1.14.359 1.697.797.557.438 1.456.797 1.997.797.541 0 1.199.259 1.463.577.263.317 1.137.778 1.941 1.023.804.245 2.09.769 2.857 1.164.767.395 1.909.84 2.538.989.629.149 1.404.53 1.721.848.318.318.943.578 1.388.578.445 0 1.642.424 2.66.941 2.892 1.47 5.346 2.559 6.434 2.855.547.149 1.37.507 1.829.795.458.288 1.545.715 2.416.95.871.234 1.978.846 2.461 1.36l.877.934-.01 88.177c-.011 90.442.009 89.247-1.503 89.247-.332 0-1.341.346-2.242.769-3.937 1.848-6.118 2.776-7.112 3.026-.586.147-1.275.519-1.53.826-.255.307-.755.56-1.112.562-.356.002-1.544.444-2.64.983-1.096.539-2.226.986-2.511.993-.501.012-1.049.263-5.557 2.541-1.151.581-2.405 1.058-2.789 1.06-.383.001-1.235.358-1.892.794-.657.435-1.43.792-1.718.794-.512.003-3.071 1.099-7.053 3.022-1.098.53-2.287.965-2.64.965-.354 0-.866.269-1.139.597-.273.329-.802.598-1.176.598-.375 0-1.563.447-2.641.994-1.078.547-2.249.995-2.603.996-.354.001-1.14.393-1.747.87-.72.566-1.859.931-3.27 1.048l-2.167.179-7.242-7.159a5283.051 5283.051 0 0 0-12.421-12.237c-6.626-6.498-41.92-41.32-58.233-57.455-13.841-13.69-12.912-13.065-15.87-10.681-.877.706-2.939 2.285-4.582 3.508-3.334 2.483-4.028 3.011-5.834 4.442-.689.546-1.419.993-1.622.993-.203 0-.741.403-1.196.896-.456.493-1.597 1.435-2.536 2.092-.94.657-3.114 2.316-4.832 3.685-1.718 1.37-3.228 2.49-3.355 2.49-.127 0-.729.404-1.337.897-.609.493-1.679 1.344-2.379 1.892-.7.548-1.613 1.265-2.029 1.594a63.977 63.977 0 0 1-2.172 1.593c-.779.548-2.869 2.123-4.645 3.501-1.776 1.377-3.556 2.679-3.956 2.893-.4.214-1.407 1.014-2.238 1.777-.831.763-1.62 1.388-1.755 1.389-.134.001-.941.543-1.792 1.203-.852.661-1.908 1.47-2.346 1.797-.438.327-1.361 1.041-2.05 1.587-1.497 1.187-2.608 1.25-4.277.244-.684-.411-1.88-.861-2.659-.999-.78-.138-2.117-.608-2.973-1.045-.856-.436-1.974-.793-2.484-.793s-1.593-.333-2.406-.739c-.812-.407-2.105-.856-2.872-.998-.767-.142-1.932-.515-2.59-.829-.657-.314-1.513-.667-1.901-.786-1.477-.451-1.094-1.34 1.782-4.133 1.6-1.553 9.115-8.976 16.702-16.494 7.586-7.519 18.343-18.15 23.904-23.626 5.561-5.476 10.416-10.397 10.788-10.936l.677-.979-16.015-15.878c-8.809-8.733-20.914-20.664-26.901-26.515-12.49-12.206-13.517-13.572-10.251-13.642.449-.01 1.534-.291 2.41-.624.877-.334 2.516-.864 3.642-1.179 1.127-.315 2.561-.84 3.188-1.166.626-.327 1.551-.596 2.055-.597.504-.001 1.49-.299 2.191-.662 4.472-2.314 9.147-1.739 11.434 1.407.11.151 1.186.983 2.391 1.849 2.694 1.937 2.426 1.734 5.66 4.271 1.469 1.153 3.311 2.545 4.094 3.093a48.267 48.267 0 0 1 3.732 2.862c.442.369 1.309.992 1.926 1.385s1.211.816 1.321.939c.11.124 1.902 1.499 3.984 3.056a445.912 445.912 0 0 1 7.371 5.604c.219.17 1.384 1.021 2.589 1.891 2.452 1.77 2.318 1.67 4.781 3.565.986.759 2.107 1.656 2.49 1.995.384.338.795.615.914.615s1.279.852 2.578 1.893c6.625 5.309 5.655 5.426 12.743-1.535 8.629-8.475 55.608-54.923 71.214-70.409 14.856-14.742 13.725-13.917 17.033-12.416m-5.137 64.537c-.634.406-1.261.904-1.394 1.107-.133.203-.69.6-1.238.882-.548.283-1.265.761-1.593 1.063-.776.714-5.32 4.166-11.859 9.008-2.274 1.684-3.223 2.41-4.283 3.28a47.88 47.88 0 0 1-2.394 1.793c-.782.548-2.932 2.162-4.778 3.586a809.573 809.573 0 0 1-6.001 4.582c-1.454 1.095-2.849 2.173-3.099 2.395-.25.222-.988.746-1.64 1.163-.651.418-1.369.91-1.593 1.094-.717.585-5.288 4.05-7.792 5.905-1.331.986-2.885 2.197-3.453 2.69-.568.493-1.159.896-1.313.896-.153 0-.651.314-1.107.697-1.024.863-2.516 2.043-4.959 3.921-2.066 1.589-2.001 3.031.191 4.202.941.502 5.93 4.242 6.271 4.699.109.148.903.696 1.764 1.22s2.565 1.773 3.785 2.777c1.221 1.003 3.564 2.802 5.208 3.996 1.643 1.195 3.131 2.401 3.306 2.681.176.279.508.508.74.508.231 0 .935.404 1.564.897s2.358 1.831 3.842 2.975c1.485 1.143 4.556 3.518 6.824 5.278 2.269 1.761 4.241 3.201 4.383 3.201.236.001.766.4 3.644 2.741 3.005 2.446 3.525 2.837 3.776 2.837.151 0 1.559 1.051 3.129 2.336 1.571 1.286 3.752 2.949 4.848 3.698 1.095.748 2.489 1.827 3.097 2.398 1.647 1.548 3.578 2.406 4.074 1.809.635-.766.334-93.119-.304-93.081-.271.016-1.012.361-1.646.766" fill="#fbfbfc"/>
    </g>
</svg>
